<svg width="249" height="234" viewBox="0 0 249 234" fill="none" xmlns="http://www.w3.org/2000/svg">
<path d="M124.5 234C193.259 234 249 181.617 249 117C249 52.3827 193.259 0 124.5 0C55.7405 0 0 52.3827 0 117C0 181.617 55.7405 234 124.5 234Z" fill="#C52020"/>
<g filter="url(#filter0_d)">
<path d="M91.9907 137.572V44H105.141V137.299C105.141 149.871 101.891 159.571 95.5126 166.532L95.51 166.535C89.1829 173.494 80.7262 177 70.0313 177C58.8848 177 50.3306 173.686 44.2287 167.164C38.2893 160.816 35.1764 151.938 35.0073 140.402H48.0822C48.2326 147.705 50.0484 153.569 53.6418 157.878L53.6464 157.883C57.4884 162.424 63.0036 164.641 70.0313 164.641C76.5389 164.641 81.849 162.235 85.8688 157.424C89.9395 152.614 91.9376 145.957 91.9907 137.579V137.572ZM146.882 123.037H145.882V124.037V175.171H132.81V44H173.965C186.263 44 195.763 47.6493 202.599 54.8471L202.601 54.8498C209.508 62.0682 213 71.6504 213 83.7011C213 96.4484 209.572 106.133 202.85 112.905C196.184 119.613 186.556 123.037 173.808 123.037H146.882ZM145.882 109.676V110.676H146.882H173.965C182.206 110.676 188.673 108.428 193.206 103.791L193.211 103.786C197.737 99.0902 199.928 92.4038 199.928 83.8841C199.928 75.7711 197.727 69.1706 193.233 64.1898C188.727 59.1953 182.561 56.6399 174.853 56.4515L174.841 56.4512H174.829H146.882H145.882V57.4512V109.676Z" fill="#074620" stroke="white" stroke-width="2"/>
</g>
<defs>
<filter id="filter0_d" x="30" y="43" width="188" height="143" filterUnits="userSpaceOnUse" color-interpolation-filters="sRGB">
<feFlood flood-opacity="0" result="BackgroundImageFix"/>
<feColorMatrix in="SourceAlpha" type="matrix" values="0 0 0 0 0 0 0 0 0 0 0 0 0 0 0 0 0 0 127 0"/>
<feOffset dy="4"/>
<feGaussianBlur stdDeviation="2"/>
<feColorMatrix type="matrix" values="0 0 0 0 0 0 0 0 0 0 0 0 0 0 0 0 0 0 0.5 0"/>
<feBlend mode="normal" in2="BackgroundImageFix" result="effect1_dropShadow"/>
<feBlend mode="normal" in="SourceGraphic" in2="effect1_dropShadow" result="shape"/>
</filter>
</defs>
</svg>
